<?xml version="1.0" encoding="utf-8"?>
<!-- Generator: Adobe Illustrator 21.0.0, SVG Export Plug-In . SVG Version: 6.00 Build 0)  -->
<svg version="1.1" id="Layer_1" xmlns="http://www.w3.org/2000/svg" xmlns:xlink="http://www.w3.org/1999/xlink" x="0px" y="0px"
	 viewBox="0 0 512 512" style="enable-background:new 0 0 512 512;" xml:space="preserve">
<style type="text/css">
	.st0{fill:#A68054;}
	.st1{fill:none;stroke:#35A2DB;stroke-width:0.483;stroke-miterlimit:10;}
	.st2{fill:#35A2DB;}
	.st3{fill:#FFFFFF;}
</style>
<path class="st0" d="M117.8,73.6c0,0,3.7-21.6,12-30.2c12.6-13,28.8-17.4,28.8-17.4s-9,12.2-12.3,17.1C143,48,127.3,68.3,117.8,73.6
	"/>
<path class="st0" d="M142,57.5c0,0-1,16.2-11.5,25.5c-10.5,9.2-26.9,25.3-28.7,30.8v-2.4c0,0-3.6-35.1,0.8-45.5
	c4.5-10.4,13.4-19.7,21.1-22l-0.6,1.1c0,0-7.3,11.2-8.8,16.9c-1.5,5.7-2.9,25.6-5.3,29c0,0,5.2-8.3,12.7-13.9
	C129.4,71.5,140.5,62.1,142,57.5"/>
<path class="st0" d="M126,94.1c0,0-1.1,15.8-10.8,29.3c-9.7,13.4-17.5,27-18.1,35l-1.3,1.5l-1.4-0.8c0,0-3.8-16-5.6-20.4
	c-1.8-4.5-8-20.9-5.3-36.6c3.1-17.9,13.3-31.8,13.3-31.8S93.7,89,94.7,97.6c1,8.5,4.2,23.7,3.2,30.1c0,0,5.9-9.8,10.8-14.6
	C113.6,108.3,126,94.1,126,94.1"/>
<path class="st0" d="M115.5,130.7l1.3-0.8c0,0,0.8,10.5-2.5,22.3c-3.4,11.8-8,32.1-8.8,40.3c-0.8,8.3-1,19.6-1,19.6h-0.9
	c0,0-11.3-18.8-15.5-23.8c-4.2-5-12.7-17.5-12.9-34.4c-0.1-16.9,3.1-32.9,3.1-32.9s1.1-0.7,1.1,0.7c0,1.4,0.3,14.4,4.5,24.1
	c4.2,9.7,12.5,34.6,13.4,40.9c0,0-0.8-18.1,3.9-27.6c4.8-9.5,12.5-22.8,12.6-24.1C114,133.7,115.5,130.7,115.5,130.7"/>
<path class="st0" d="M116.9,174.6c0,0,5.2,22.4,6.1,37.5c0.8,15.1,3.2,33.8,6.3,38.2c3.1,4.5,2,6.4,2,6.4s-24.5-18.1-31.1-23.4
	c-6.6-5.3-15.5-13.5-20.3-24.1c-5.6-12.5-3.9-31.8-3.9-31.8s4.6,16.8,12.7,24.5c8.1,7.7,23.2,27.6,28.2,35.4c0,0-7.9-20.3-6.5-34.5
	C112.5,181.2,116.9,174.6,116.9,174.6"/>
<path class="st0" d="M129,214.1c0,0,0.4,0.7,0,1.6c-0.4,0.9,2.8,31.4,6.9,40c4.1,8.5,10.9,18.3,13.2,20c0,0-11.6-10.1-21-15.1
	c-9.4-5-29.1-12.7-40.3-31.4c0,0,1.1,9.1,5.3,16.4c4.2,7.3,17.5,25.9,33,31.9c15.5,6,38.8,9.2,39.8,9.2c0,0-14.6-21.7-16.1-28.4
	c-1.5-6.7-2-13.6-7.7-23.9C136.4,224,129,214.1,129,214.1"/>
<path class="st0" d="M153.9,251.9c0,0-0.1,2.8,0.8,4.9c1,2.1,9.8,31.6,31.1,37.4c0,0-22.7-3.2-27.3-3.2c-4.6,0-20,0-28.6-4.2
	c-8.5-4.2-14.8-11.2-14.8-11.2s5.2,14.6,20.8,23.1c15.6,8.5,34,8,37.6,7.6c3.6-0.4,28.8-7,28.8-7s9-2.4,10.2-2.4
	c0,0-10.8-3.5-17.1-7.1c-6.3-3.6-14.6-10.5-21.6-18.6C166.9,262.9,153.9,251.9,153.9,251.9"/>
<path class="st0" d="M264.3,310.3c0,0-6.6-6.9-10-5.3c-3.4,1.5-30.1,19.3-38.2,35.4l-7.6-8c0,0,16.7-17.6,27.9-24.2l11.2-6.6
	c0,0-7.3-2.9-15.1,2.1c-7.8,5-29.4,24.4-45.1,23.7c-15.7-0.7-29.8-3.2-41.5-18.3c0,0,20.2,11.1,38.7,4.2
	c18.5-6.9,32.6-16.5,44.3-16.8c11.6-0.3,19.5,0.7,21.4,1.1c2,0.4,12-0.2,14-1.2V310.3z"/>
<path class="st0" d="M392.8,73.6c0,0-3.7-21.6-12-30.2c-12.6-13-28.8-17.4-28.8-17.4s9,12.2,12.3,17.1
	C367.6,48,383.3,68.3,392.8,73.6"/>
<path class="st0" d="M368.6,57.5c0,0,1,16.2,11.5,25.5c10.5,9.2,26.9,25.3,28.7,30.8v-2.4c0,0,3.6-35.1-0.8-45.5
	c-4.5-10.4-13.4-19.7-21.1-22l0.6,1.1c0,0,7.3,11.2,8.8,16.9c1.5,5.7,2.9,25.6,5.3,29c0,0-5.2-8.3-12.7-13.9
	C381.2,71.5,370.1,62.1,368.6,57.5"/>
<path class="st0" d="M384.5,94.1c0,0,1.1,15.8,10.8,29.3c9.7,13.4,17.5,27,18.1,35l1.3,1.5l1.4-0.8c0,0,3.8-16,5.6-20.4
	c1.8-4.5,8-20.9,5.3-36.6c-3.1-17.9-13.3-31.8-13.3-31.8s3.2,18.8,2.2,27.3c-1,8.5-4.2,23.7-3.2,30.1c0,0-5.9-9.8-10.8-14.6
	C397,108.3,384.5,94.1,384.5,94.1"/>
<path class="st0" d="M395,130.7l-1.3-0.8c0,0-0.8,10.5,2.5,22.3c3.4,11.8,8,32.1,8.8,40.3c0.8,8.3,1,19.6,1,19.6h0.9
	c0,0,11.3-18.8,15.5-23.8c4.2-5,12.7-17.5,12.9-34.4c0.1-16.9-3.1-32.9-3.1-32.9s-1.1-0.7-1.1,0.7c0,1.4-0.3,14.4-4.5,24.1
	c-4.2,9.7-12.5,34.6-13.4,40.9c0,0,0.8-18.1-3.9-27.6c-4.8-9.5-12.5-22.8-12.6-24.1C396.6,133.7,395,130.7,395,130.7"/>
<path class="st0" d="M393.7,174.6c0,0-5.2,22.4-6.1,37.5c-0.8,15.1-3.2,33.8-6.3,38.2c-3.1,4.5-2,6.4-2,6.4s24.5-18.1,31.1-23.4
	c6.6-5.3,15.5-13.5,20.3-24.1c5.6-12.5,3.9-31.8,3.9-31.8s-4.6,16.8-12.7,24.5c-8.1,7.7-23.2,27.6-28.2,35.4c0,0,7.9-20.3,6.5-34.5
	C398.1,181.2,393.7,174.6,393.7,174.6"/>
<path class="st0" d="M381.6,214.1c0,0-0.4,0.7,0,1.6c0.4,0.9-2.8,31.4-6.9,40c-4.1,8.5-10.9,18.3-13.2,20c0,0,11.6-10.1,21-15.1
	c9.4-5,29.1-12.7,40.3-31.4c0,0-1.1,9.1-5.3,16.4c-4.2,7.3-17.5,25.9-33,31.9c-15.5,6-38.8,9.2-39.8,9.2c0,0,14.6-21.7,16.1-28.4
	c1.5-6.7,2-13.6,7.7-23.9C374.2,224,381.6,214.1,381.6,214.1"/>
<path class="st0" d="M356.7,251.9c0,0,0.1,2.8-0.8,4.9c-1,2.1-9.8,31.6-31.1,37.4c0,0,22.7-3.2,27.3-3.2c4.6,0,20,0,28.6-4.2
	c8.5-4.2,14.8-11.2,14.8-11.2s-5.2,14.6-20.8,23.1c-15.6,8.5-34,8-37.6,7.6c-3.6-0.4-28.8-7-28.8-7s-9-2.4-10.2-2.4
	c0,0,10.8-3.5,17.1-7.1c6.3-3.6,14.6-10.5,21.6-18.6C343.6,262.9,356.7,251.9,356.7,251.9"/>
<path class="st0" d="M246.3,310.3c0,0,6.6-6.9,10-5.3c3.4,1.5,30.1,19.3,38.2,35.4l7.6-8c0,0-16.7-17.6-27.9-24.2l-11.2-6.6
	c0,0,7.3-2.9,15.1,2.1c7.8,5,29.4,24.4,45.1,23.7c15.7-0.7,29.8-3.2,41.5-18.3c0,0-20.2,11.1-38.7,4.2
	c-18.5-6.9-32.6-16.5-44.3-16.8c-11.6-0.3-19.5,0.7-21.4,1.1c-2,0.4-12-0.2-14-1.2V310.3z"/>
<ellipse class="st1" cx="255.1" cy="161.2" rx="121.3" ry="122.4"/>
<path class="st2" d="M142.7,161.2c0-62.6,50.3-113.4,112.4-113.4s112.4,50.8,112.4,113.4c0,62.6-50.3,113.4-112.4,113.4
	S142.7,223.8,142.7,161.2"/>
<path class="st3" d="M349.5,132.8c-0.7-22-19.3-32-31.6-31.9h-53h-20.1h-53c-12.3-0.1-30.9,9.9-31.6,31.9
	c-0.6,18.6,12.4,25.7,19.8,28.6c1.2,0.5,2.1,0.6,2.9,0.9l0.2,0.1c1.7,0.6,3.4,0.7,5.3,0.9c1,0.1,2.2,0.1,3.1,0
	c4-0.4,7.6-1.4,8.9-1.8h7.8v102.9c1.2,0.6,2.4,1.1,3.7,1.7v-94.4c0,0-0.2-8.1,4.7-8.1s4.7,4,4.7,4v102c2.2,0.7,4.5,1.3,6.8,1.9
	V168.5c0,0,0-5.1,3.6-5.1c5.1,0,5.1,3.8,5.1,3.8v105.9c2.4,0.4,4.8,0.7,7.2,1V168.7c0,0,0.5-4.4,3.3-5.2c1.8,0.5,4.1,1.7,4.1,4.6
	v106.4c1.2,0,2.4,0.1,3.6,0.1c1.1,0,2.1-0.1,3.2-0.1V168.1c0-2.9,2.4-4.1,4.1-4.6c2.8,0.8,3.3,5.2,3.3,5.2v105.4
	c2.4-0.2,4.8-0.5,7.2-0.9v-106c0,0,0-3.8,5.1-3.8c3.6,0,3.6,5.1,3.6,5.1v102.9c2.3-0.6,4.6-1.2,6.8-1.9V167.4c0,0-0.2-4,4.7-4
	s4.7,8.1,4.7,8.1v94.6c1.2-0.5,2.5-1.1,3.7-1.6V161.4h7.8c1.6,0.5,6.5,1.6,11.4,1.6c1.9,0,3.9-0.3,5.6-0.7l0.2-0.1
	C332.4,160.3,350.1,154.5,349.5,132.8 M264.4,157.8h-19h-38.5c5.9-4.2,9.4-9.9,10.4-16.9h28.5H264h28.5c1,6.9,4.5,12.6,10.4,16.9
	H264.4z M237.1,124.6c1.9,2.3,4.8,3.5,8.7,3.5c1.3,0,2.4-0.2,3.5-0.6c-1.6,2.5-3.3,3.9-4.1,4.5c-5.1,2-11.3,1.4-16-1.7
	c-4.9-3.3-7.4-8.6-7.1-14.9h12.7C234.5,117.7,234.7,121.7,237.1,124.6 M252.1,120.1c-0.3,1.7-0.8,3.1-1.3,4.4c-1.3,1.1-3,1.8-5,1.8
	c-3.3,0-5.8-1-7.3-2.9c-2-2.5-2.1-6.1-2-8h7.8h7.9C252.1,116.6,252,118.3,252.1,120.1 M227.1,133.2c3.5,2.4,7.6,3.5,11.7,3.5
	c1.9,0,3.8-0.3,5.6-0.8l0,0.1l1.8-0.6c0.1,0,0.3-0.2,0.6-0.4c0.7-0.3,1.4-0.6,2.1-1c2.7-1.6,4.6-3.5,6-5.6c1.3,2,3.2,4,5.9,5.6
	c0.7,0.4,1.4,0.7,2.1,1c0.3,0.2,0.6,0.4,0.6,0.4l1.8,0.6l0-0.1c1.8,0.5,3.7,0.8,5.6,0.8c4.1,0,8.2-1.2,11.7-3.5c6-4,9-10.4,8.7-17.8
	h13c-4.8,3.8-11.7,10.8-12.1,20c0,0.7,0,1.3,0,2H264h-18.2h-28.2c0-0.7,0-1.3,0-2c-0.4-9.2-7.2-16.2-12.1-20h13
	C218.1,122.9,221.2,129.3,227.1,133.2 M275,115.4h12.7c0.3,6.2-2.2,11.6-7.1,14.9c-4.8,3.2-10.9,3.8-16,1.7c-0.9-0.6-2.6-2-4.1-4.5
	c1.1,0.4,2.2,0.6,3.5,0.6c3.9,0,6.8-1.2,8.7-3.5C275,121.7,275.2,117.7,275,115.4 M271.3,123.4c-1.6,1.9-4,2.9-7.3,2.9
	c-2,0-3.7-0.6-5-1.8c-0.5-1.3-1-2.8-1.3-4.4c0.1-1.9,0-3.5-0.1-4.7h7.9h7.8C273.4,117.4,273.3,121,271.3,123.4 M325.4,159.1
	l-0.2,0.1c-5.6,1.9-15-1.2-15-1.2c-9.9-4.5-14.8-12-14.4-22.4c0.4-11.2,13.1-19.1,14.7-20.1h4.3c3.9,0.1,17,1.2,20.3,13.4
	c2.8,10.5-3.6,17.7-7.9,20.4c-4,2.5-9.5,2.7-14.3,0.6c-4.4-1.9-7.3-5.3-8.2-9.4c-1-4.6,0.1-9.1,2.8-12.6c2.5-3.2,5.5-4.9,9.2-5.1
	c3.4-0.1,5.8,1.5,7.3,3.2c0.4,0.5,0.5,1-0.3,1.2c-1.7-0.4-3.6-0.3-5.5,0.4c-2,0.8-3.6,2.4-4.3,4.3c-2.7,6.8,3.4,13.2,10.1,11.3
	c2.6-0.8,5.1-3.1,5.8-5.7c0,0,2.5-5.6-0.9-11.5c-1.6-3.3-5.3-6.7-11.6-7c-4.8-0.2-9.3,2.6-12.5,6.6c-3.4,4.3-4.7,10-3.5,15.6
	c1.1,5.2,4.8,9.6,10.3,11.9c2.6,1.1,5.5,1.7,8.2,1.7c3.4,0,6.7-0.9,9.4-2.6c4.8-3,12.9-11.8,9.5-24.3c-4-14.6-19.2-15.9-23.7-16
	h-49.4h-21.1h-49.4c-4.6,0.1-19.8,1.5-23.7,16c-3.4,12.5,4.7,21.4,9.5,24.3c2.7,1.7,6,2.6,9.4,2.6c2.7,0,5.6-0.6,8.2-1.7
	c5.4-2.3,9.2-6.7,10.3-11.9c1.2-5.6-0.1-11.2-3.5-15.6c-3.2-4-7.7-6.8-12.5-6.6c-6.3,0.3-10,3.7-11.6,7c-3.5,5.9-0.9,11.5-0.9,11.5
	c0.8,2.6,3.2,4.9,5.8,5.7c6.8,2,12.8-4.4,10.1-11.3c-0.8-2-2.4-3.6-4.3-4.3c-1.9-0.7-3.8-0.8-5.5-0.4c-0.8-0.2-0.7-0.7-0.3-1.2
	c1.5-1.8,3.8-3.4,7.3-3.2c3.7,0.1,6.6,1.9,9.2,5.1c2.8,3.6,3.8,8,2.8,12.6c-0.9,4.1-3.8,7.5-8.2,9.4c-4.9,2.1-10.4,1.8-14.3-0.6
	c-4.3-2.6-10.7-9.9-7.9-20.4c3.3-12.2,16.4-13.3,20.3-13.4h4.3c1.6,1,14.3,8.9,14.7,20.1c0.4,10.4-4.5,17.9-14.4,22.4
	c-0.1,0-9.5,3.1-15,1.2l-0.2-0.1c-9-3.1-21-9.1-20.5-26.2c0.6-19.6,17.1-28.5,28-28.4h53h20.1h53c10.9-0.1,27.4,8.8,28,28.4
	C346.4,150,334.5,156,325.4,159.1"/>
<path class="st0" d="M117.8,73.6c0,0,3.7-21.6,12-30.2c12.6-13,28.8-17.4,28.8-17.4s-9,12.2-12.3,17.1C143,48,127.3,68.3,117.8,73.6
	"/>
<path class="st0" d="M142,57.5c0,0-1,16.2-11.5,25.5c-10.5,9.2-26.9,25.3-28.7,30.8v-2.4c0,0-3.6-35.1,0.8-45.5
	c4.5-10.4,13.4-19.7,21.1-22l-0.6,1.1c0,0-7.3,11.2-8.8,16.9c-1.5,5.7-2.9,25.6-5.3,29c0,0,5.2-8.3,12.7-13.9
	C129.4,71.5,140.5,62.1,142,57.5"/>
<path class="st0" d="M126,94.1c0,0-1.1,15.8-10.8,29.3c-9.7,13.4-17.5,27-18.1,35l-1.3,1.5l-1.4-0.8c0,0-3.8-16-5.6-20.4
	c-1.8-4.5-8-20.9-5.3-36.6c3.1-17.9,13.3-31.8,13.3-31.8S93.7,89,94.7,97.6c1,8.5,4.2,23.7,3.2,30.1c0,0,5.9-9.8,10.8-14.6
	C113.6,108.3,126,94.1,126,94.1"/>
<path class="st0" d="M115.5,130.7l1.3-0.8c0,0,0.8,10.5-2.5,22.3c-3.4,11.8-8,32.1-8.8,40.3c-0.8,8.3-1,19.6-1,19.6h-0.9
	c0,0-11.3-18.8-15.5-23.8c-4.2-5-12.7-17.5-12.9-34.4c-0.1-16.9,3.1-32.9,3.1-32.9s1.1-0.7,1.1,0.7c0,1.4,0.3,14.4,4.5,24.1
	c4.2,9.7,12.5,34.6,13.4,40.9c0,0-0.8-18.1,3.9-27.6c4.8-9.5,12.5-22.8,12.6-24.1C114,133.7,115.5,130.7,115.5,130.7"/>
<path class="st0" d="M116.9,174.6c0,0,5.2,22.4,6.1,37.5c0.8,15.1,3.2,33.8,6.3,38.2c3.1,4.5,2,6.4,2,6.4s-24.5-18.1-31.1-23.4
	c-6.6-5.3-15.5-13.5-20.3-24.1c-5.6-12.5-3.9-31.8-3.9-31.8s4.6,16.8,12.7,24.5c8.1,7.7,23.2,27.6,28.2,35.4c0,0-7.9-20.3-6.5-34.5
	C112.5,181.2,116.9,174.6,116.9,174.6"/>
<path class="st0" d="M129,214.1c0,0,0.4,0.7,0,1.6c-0.4,0.9,2.8,31.4,6.9,40c4.1,8.5,10.9,18.3,13.2,20c0,0-11.6-10.1-21-15.1
	c-9.4-5-29.1-12.7-40.3-31.4c0,0,1.1,9.1,5.3,16.4c4.2,7.3,17.5,25.9,33,31.9c15.5,6,38.8,9.2,39.8,9.2c0,0-14.6-21.7-16.1-28.4
	c-1.5-6.7-2-13.6-7.7-23.9C136.4,224,129,214.1,129,214.1"/>
<path class="st0" d="M153.9,251.9c0,0-0.1,2.8,0.8,4.9c1,2.1,9.8,31.6,31.1,37.4c0,0-22.7-3.2-27.3-3.2c-4.6,0-20,0-28.6-4.2
	c-8.5-4.2-14.8-11.2-14.8-11.2s5.2,14.6,20.8,23.1c15.6,8.5,34,8,37.6,7.6c3.6-0.4,28.8-7,28.8-7s9-2.4,10.2-2.4
	c0,0-10.8-3.5-17.1-7.1c-6.3-3.6-14.6-10.5-21.6-18.6C166.9,262.9,153.9,251.9,153.9,251.9"/>
<path class="st0" d="M264.3,310.3c0,0-6.6-6.9-10-5.3c-3.4,1.5-30.1,19.3-38.2,35.4l-7.6-8c0,0,16.7-17.6,27.9-24.2l11.2-6.6
	c0,0-7.3-2.9-15.1,2.1c-7.8,5-29.4,24.4-45.1,23.7c-15.7-0.7-29.8-3.2-41.5-18.3c0,0,20.2,11.1,38.7,4.2
	c18.5-6.9,32.6-16.5,44.3-16.8c11.6-0.3,19.5,0.7,21.4,1.1c2,0.4,12-0.2,14-1.2V310.3z"/>
<path class="st0" d="M392.8,73.6c0,0-3.7-21.6-12-30.2c-12.6-13-28.8-17.4-28.8-17.4s9,12.2,12.3,17.1
	C367.6,48,383.3,68.3,392.8,73.6"/>
<path class="st0" d="M368.6,57.5c0,0,1,16.2,11.5,25.5c10.5,9.2,26.9,25.3,28.7,30.8v-2.4c0,0,3.6-35.1-0.8-45.5
	c-4.5-10.4-13.4-19.7-21.1-22l0.6,1.1c0,0,7.3,11.2,8.8,16.9c1.5,5.7,2.9,25.6,5.3,29c0,0-5.2-8.3-12.7-13.9
	C381.2,71.5,370.1,62.1,368.6,57.5"/>
<path class="st0" d="M384.5,94.1c0,0,1.1,15.8,10.8,29.3c9.7,13.4,17.5,27,18.1,35l1.3,1.5l1.4-0.8c0,0,3.8-16,5.6-20.4
	c1.8-4.5,8-20.9,5.3-36.6c-3.1-17.9-13.3-31.8-13.3-31.8s3.2,18.8,2.2,27.3c-1,8.5-4.2,23.7-3.2,30.1c0,0-5.9-9.8-10.8-14.6
	C397,108.3,384.5,94.1,384.5,94.1"/>
<path class="st0" d="M395,130.7l-1.3-0.8c0,0-0.8,10.5,2.5,22.3c3.4,11.8,8,32.1,8.8,40.3c0.8,8.3,1,19.6,1,19.6h0.9
	c0,0,11.3-18.8,15.5-23.8c4.2-5,12.7-17.5,12.9-34.4c0.1-16.9-3.1-32.9-3.1-32.9s-1.1-0.7-1.1,0.7c0,1.4-0.3,14.4-4.5,24.1
	c-4.2,9.7-12.5,34.6-13.4,40.9c0,0,0.8-18.1-3.9-27.6c-4.8-9.5-12.5-22.8-12.6-24.1C396.6,133.7,395,130.7,395,130.7"/>
<path class="st0" d="M393.7,174.6c0,0-5.2,22.4-6.1,37.5c-0.8,15.1-3.2,33.8-6.3,38.2c-3.1,4.5-2,6.4-2,6.4s24.5-18.1,31.1-23.4
	c6.6-5.3,15.5-13.5,20.3-24.1c5.6-12.5,3.9-31.8,3.9-31.8s-4.6,16.8-12.7,24.5c-8.1,7.7-23.2,27.6-28.2,35.4c0,0,7.9-20.3,6.5-34.5
	C398.1,181.2,393.7,174.6,393.7,174.6"/>
<path class="st0" d="M381.6,214.1c0,0-0.4,0.7,0,1.6c0.4,0.9-2.8,31.4-6.9,40c-4.1,8.5-10.9,18.3-13.2,20c0,0,11.6-10.1,21-15.1
	c9.4-5,29.1-12.7,40.3-31.4c0,0-1.1,9.1-5.3,16.4c-4.2,7.3-17.5,25.9-33,31.9c-15.5,6-38.8,9.2-39.8,9.2c0,0,14.6-21.7,16.1-28.4
	c1.5-6.7,2-13.6,7.7-23.9C374.2,224,381.6,214.1,381.6,214.1"/>
<path class="st0" d="M356.7,251.9c0,0,0.1,2.8-0.8,4.9c-1,2.1-9.8,31.6-31.1,37.4c0,0,22.7-3.2,27.3-3.2c4.6,0,20,0,28.6-4.2
	c8.5-4.2,14.8-11.2,14.8-11.2s-5.2,14.6-20.8,23.1c-15.6,8.5-34,8-37.6,7.6c-3.6-0.4-28.8-7-28.8-7s-9-2.4-10.2-2.4
	c0,0,10.8-3.5,17.1-7.1c6.3-3.6,14.6-10.5,21.6-18.6C343.6,262.9,356.7,251.9,356.7,251.9"/>
<path class="st0" d="M246.3,310.3c0,0,6.6-6.9,10-5.3c3.4,1.5,30.1,19.3,38.2,35.4l7.6-8c0,0-16.7-17.6-27.9-24.2l-11.2-6.6
	c0,0,7.3-2.9,15.1,2.1c7.8,5,29.4,24.4,45.1,23.7c15.7-0.7,29.8-3.2,41.5-18.3c0,0-20.2,11.1-38.7,4.2
	c-18.5-6.9-32.6-16.5-44.3-16.8c-11.6-0.3-19.5,0.7-21.4,1.1c-2,0.4-12-0.2-14-1.2V310.3z"/>
<ellipse class="st1" cx="255.1" cy="161.2" rx="121.3" ry="122.4"/>
<path class="st2" d="M142.7,161.2c0-62.6,50.3-113.4,112.4-113.4s112.4,50.8,112.4,113.4c0,62.6-50.3,113.4-112.4,113.4
	S142.7,223.8,142.7,161.2"/>
<path class="st3" d="M349.5,132.8c-0.7-22-19.3-32-31.6-31.9h-53h-20.1h-53c-12.3-0.1-30.9,9.9-31.6,31.9
	c-0.6,18.6,12.4,25.7,19.8,28.6c1.2,0.5,2.1,0.6,2.9,0.9l0.2,0.1c1.7,0.6,3.4,0.7,5.3,0.9c1,0.1,2.2,0.1,3.1,0
	c4-0.4,7.6-1.4,8.9-1.8h7.8v102.9c1.2,0.6,2.4,1.1,3.7,1.7v-94.4c0,0-0.2-8.1,4.7-8.1s4.7,4,4.7,4v102c2.2,0.7,4.5,1.3,6.8,1.9
	V168.5c0,0,0-5.1,3.6-5.1c5.1,0,5.1,3.8,5.1,3.8v105.9c2.4,0.4,4.8,0.7,7.2,1V168.7c0,0,0.5-4.4,3.3-5.2c1.8,0.5,4.1,1.7,4.1,4.6
	v106.4c1.2,0,2.4,0.1,3.6,0.1c1.1,0,2.1-0.1,3.2-0.1V168.1c0-2.9,2.4-4.1,4.1-4.6c2.8,0.8,3.3,5.2,3.3,5.2v105.4
	c2.4-0.2,4.8-0.5,7.2-0.9v-106c0,0,0-3.8,5.1-3.8c3.6,0,3.6,5.1,3.6,5.1v102.9c2.3-0.6,4.6-1.2,6.8-1.9V167.4c0,0-0.2-4,4.7-4
	s4.7,8.1,4.7,8.1v94.6c1.2-0.5,2.5-1.1,3.7-1.6V161.4h7.8c1.6,0.5,6.5,1.6,11.4,1.6c1.9,0,3.9-0.3,5.6-0.7l0.2-0.1
	C332.4,160.3,350.1,154.5,349.5,132.8 M264.4,157.8h-19h-38.5c5.9-4.2,9.4-9.9,10.4-16.9h28.5H264h28.5c1,6.9,4.5,12.6,10.4,16.9
	H264.4z M237.1,124.6c1.9,2.3,4.8,3.5,8.7,3.5c1.3,0,2.4-0.2,3.5-0.6c-1.6,2.5-3.3,3.9-4.1,4.5c-5.1,2-11.3,1.4-16-1.7
	c-4.9-3.3-7.4-8.6-7.1-14.9h12.7C234.5,117.7,234.7,121.7,237.1,124.6 M252.1,120.1c-0.3,1.7-0.8,3.1-1.3,4.4c-1.3,1.1-3,1.8-5,1.8
	c-3.3,0-5.8-1-7.3-2.9c-2-2.5-2.1-6.1-2-8h7.8h7.9C252.1,116.6,252,118.3,252.1,120.1 M227.1,133.2c3.5,2.4,7.6,3.5,11.7,3.5
	c1.9,0,3.8-0.3,5.6-0.8l0,0.1l1.8-0.6c0.1,0,0.3-0.2,0.6-0.4c0.7-0.3,1.4-0.6,2.1-1c2.7-1.6,4.6-3.5,6-5.6c1.3,2,3.2,4,5.9,5.6
	c0.7,0.4,1.4,0.7,2.1,1c0.3,0.2,0.6,0.4,0.6,0.4l1.8,0.6l0-0.1c1.8,0.5,3.7,0.8,5.6,0.8c4.1,0,8.2-1.2,11.7-3.5c6-4,9-10.4,8.7-17.8
	h13c-4.8,3.8-11.7,10.8-12.1,20c0,0.7,0,1.3,0,2H264h-18.2h-28.2c0-0.7,0-1.3,0-2c-0.4-9.2-7.2-16.2-12.1-20h13
	C218.1,122.9,221.2,129.3,227.1,133.2 M275,115.4h12.7c0.3,6.2-2.2,11.6-7.1,14.9c-4.8,3.2-10.9,3.8-16,1.7c-0.9-0.6-2.6-2-4.1-4.5
	c1.1,0.4,2.2,0.6,3.5,0.6c3.9,0,6.8-1.2,8.7-3.5C275,121.7,275.2,117.7,275,115.4 M271.3,123.4c-1.6,1.9-4,2.9-7.3,2.9
	c-2,0-3.7-0.6-5-1.8c-0.5-1.3-1-2.8-1.3-4.4c0.1-1.9,0-3.5-0.1-4.7h7.9h7.8C273.4,117.4,273.3,121,271.3,123.4 M325.4,159.1
	l-0.2,0.1c-5.6,1.9-15-1.2-15-1.2c-9.9-4.5-14.8-12-14.4-22.4c0.4-11.2,13.1-19.1,14.7-20.1h4.3c3.9,0.1,17,1.2,20.3,13.4
	c2.8,10.5-3.6,17.7-7.9,20.4c-4,2.5-9.5,2.7-14.3,0.6c-4.4-1.9-7.3-5.3-8.2-9.4c-1-4.6,0.1-9.1,2.8-12.6c2.5-3.2,5.5-4.9,9.2-5.1
	c3.4-0.1,5.8,1.5,7.3,3.2c0.4,0.5,0.5,1-0.3,1.2c-1.7-0.4-3.6-0.3-5.5,0.4c-2,0.8-3.6,2.4-4.3,4.3c-2.7,6.8,3.4,13.2,10.1,11.3
	c2.6-0.8,5.1-3.1,5.8-5.7c0,0,2.5-5.6-0.9-11.5c-1.6-3.3-5.3-6.7-11.6-7c-4.8-0.2-9.3,2.6-12.5,6.6c-3.4,4.3-4.7,10-3.5,15.6
	c1.1,5.2,4.8,9.6,10.3,11.9c2.6,1.1,5.5,1.7,8.2,1.7c3.4,0,6.7-0.9,9.4-2.6c4.8-3,12.9-11.8,9.5-24.3c-4-14.6-19.2-15.9-23.7-16
	h-49.4h-21.1h-49.4c-4.6,0.1-19.8,1.5-23.7,16c-3.4,12.5,4.7,21.4,9.5,24.3c2.7,1.7,6,2.6,9.4,2.6c2.7,0,5.6-0.6,8.2-1.7
	c5.4-2.3,9.2-6.7,10.3-11.9c1.2-5.6-0.1-11.2-3.5-15.6c-3.2-4-7.7-6.8-12.5-6.6c-6.3,0.3-10,3.7-11.6,7c-3.5,5.9-0.9,11.5-0.9,11.5
	c0.8,2.6,3.2,4.9,5.8,5.7c6.8,2,12.8-4.4,10.1-11.3c-0.8-2-2.4-3.6-4.3-4.3c-1.9-0.7-3.8-0.8-5.5-0.4c-0.8-0.2-0.7-0.7-0.3-1.2
	c1.5-1.8,3.8-3.4,7.3-3.2c3.7,0.1,6.6,1.9,9.2,5.1c2.8,3.6,3.8,8,2.8,12.6c-0.9,4.1-3.8,7.5-8.2,9.4c-4.9,2.1-10.4,1.8-14.3-0.6
	c-4.3-2.6-10.7-9.9-7.9-20.4c3.3-12.2,16.4-13.3,20.3-13.4h4.3c1.6,1,14.3,8.9,14.7,20.1c0.4,10.4-4.5,17.9-14.4,22.4
	c-0.1,0-9.5,3.1-15,1.2l-0.2-0.1c-9-3.1-21-9.1-20.5-26.2c0.6-19.6,17.1-28.5,28-28.4h53h20.1h53c10.9-0.1,27.4,8.8,28,28.4
	C346.4,150,334.5,156,325.4,159.1"/>
<g>
	<rect x="76.4" y="468.5" class="st0" width="356.8" height="4.5"/>
</g>
<g>
	<rect x="76.4" y="477.8" class="st2" width="356.8" height="9.1"/>
</g>
<g>
	<path class="st2" d="M470.9,370.9h6.7v20.9c0,0-0.4,8.4-10.4,8.2c-11.2-0.2-11.2-4.7-11.2-4.7s-2.8,3.3-7.1,3.9
		c-4.3,0.6-13.7,1.4-14.3-3.7c0,0-2.3,2.9-4.5,3.1c-2.2,0.2-9.2,0.6-9.2,0.6v7.6c0,0-2.2,7.2-7.8,7c-4.1-0.1-10.4,0.4-10.4,0.4v-6.1
		c0,0,6.7,0.8,8.4-1.2c1.6-2,2.9-4.1,2.7-7.6c-0.2-3.5,0-28.2,0-28.2h6.5v21.1h7.6c0,0,3.9-3.3,3.9-8.6v-12.5h7v17.8
		c0,0,2.5,3.5,6.3,3.5c3.9,0,5.9-1.8,5.9-4.9v-13.1h7v14.3c0,0,2,3.5,6.5,3.5c4.5,0,6.1-3.3,6.1-6.3L470.9,370.9z"/>
	<path class="st2" d="M399,362.7l-0.9-6.8h-19.6c0,0-7.7,5.2-5.4,12c2.2,6.7,7,8.8,7,8.8l10.6,6.7c0,0,3.7,7.8-0.8,8.4
		c-4.5,0.6-21.3,0-21.3,0s-3.1-1.8-3.9-5.1c-0.8-3.3-1.2-14.3-8.8-15.3c-7.6-1-18.4,1.6-18.6,7c-0.2,5.3,0,14.3,0,14.3
		s1.2,7,7.4,7.2c6.1,0.2,11.2,0,11.2,0l0.2-6.7l-7.4-1c0,0-4.5-1.2-4.5-5.5c0-4.3,1.2-9,6.5-9c5.3,0,5.7,7.8,5.7,7.8s0.8,9,4.1,11.7
		c3.3,2.7,7.6,2.5,7.6,2.5h24.3c0,0,9.6-2,7.6-11.4c-1.6-7.6-5.5-9.8-5.5-9.8l-12.7-8.8c0,0-2.9-5.5,3.7-5.9
		C392,362.9,399,362.7,399,362.7"/>
	<path class="st3" d="M249.3,370.7v8.6l20.4,1.4c0,0,4.2,0.2,6.1,1.3c1.2,0.7,2.4,3.2,2.2,4.3c-0.2,1.4,0,2.6-0.5,3.4
		c-0.9,1.3-2.7,1.9-4.2,1.9h-24.7c0,0-6.9,0.4-6.9-6.1c0-6.5-0.4-30.5-0.4-30.5h-8.4v36c0,0,0,3.1,2.4,5.7c1.4,1.5,3.7,2.5,6.6,2.5
		h34.6c0,0,1.7,0.1,3.2-0.7c1.2-0.6,2.2-1.7,2.3-3c0,0,2.5,3.9,5.1,3.9h11c0,0,2.3-0.2,4.1-1.8c1.8-1.6,3.2-3.8,3.1-7.8
		c-0.1-6.7,0-18.6,0-18.6H299v17.4c0,0,0,1.1-0.4,2c-0.4,0.7-1,1.1-2,1.1h-9c0,0-1.3,0-2.2-0.8c-0.7-0.7-1.1-2.2-1.1-3.1
		c0-1.2,0.8-5.5-1.2-9.1c-1.1-1.9-2.6-3.6-6.2-4.4L249.3,370.7z"/>
	<path class="st3" d="M220.7,371.1h7.6v33.3c0,0,0.2,3.1-1.2,5.6c-0.9,1.6-2.8,3.2-5.1,3.2h-11.7v-7.2h6.2c0,0,2,0.1,3-0.9
		c0.7-0.7,1-1.9,1-3.6C220.5,398.1,220.7,371.1,220.7,371.1"/>
	<path class="st2" d="M94.3,371.1h6.7v18.8c0,0-0.3,5.4-5.5,8.2c-1.9,1.1-4.6,1.2-8,1.2c-3,0-5.1,0.2-6.9-0.4c-5.8-2-6-6.2-6-6.2
		v-37.6h7.2v32.3c0,0,0.4,3.9,6.1,3.9c5.7,0,6.1-3.9,6.1-3.9L94.3,371.1z"/>
	<path class="st2" d="M62.2,355.1h6.9V403c0,0-0.5,8.5-8.1,11c-1,0.3-2.2,0.6-3.6,0.6c-1.7,0.2-9.1,0.1-10.6,0
		c-1.2-0.1-11.9-1.8-11.9-8.6v-13.9h6.3V403c0,0-0.2,4.7,5.3,4.7c5.5,0,15.1,0.2,15.1-6.1C61.8,395.2,62.2,355.1,62.2,355.1"/>
	<rect x="90.2" y="406.7" class="st2" width="6.7" height="6.3"/>
	<rect x="171.2" y="406.7" class="st2" width="6.7" height="6.3"/>
	<rect x="221.1" y="358" class="st3" width="6.7" height="6.3"/>
	<rect x="262.4" y="406.3" class="st3" width="6.7" height="6.3"/>
	<rect x="456.5" y="358.1" class="st2" width="6.7" height="6.3"/>
	<rect x="451.4" y="348.6" class="st2" width="6.7" height="6.3"/>
	<rect x="446.1" y="358.1" class="st2" width="6.7" height="6.3"/>
	<rect x="351.6" y="358.1" class="st2" width="6.7" height="6.3"/>
	<rect x="341.2" y="358.1" class="st2" width="6.7" height="6.3"/>
	<rect x="298.6" y="358.2" class="st3" width="6.7" height="6.3"/>
	<rect x="310.9" y="355.1" class="st3" width="7.4" height="43.6"/>
	<path class="st3" d="M319.5,415.3v-3.4h-2.7c0,0-1.6,0.2-1.6-1.4c0-1.6,0.1-1.6,0.1-1.6s0.4-0.7,0.9-0.7h2.7v-3.4h-6.6
		c0,0-2.2,1.2-2.2,3.8c0,2.6,2.6,3.2,2.6,3.2h-2.7v3.6L319.5,415.3z"/>
	<path class="st2" d="M192.9,379.8c-2.6-5.2-10.1-5.7-10.1-5.7l-23.5-3.3v8.6l23.2,2.6c0,0,2.6,0.3,3.5,1.6c0.7,1,1.4,2.3,1.1,4.4
		c-0.6,4.1-3.7,3.7-3.7,3.7h-29c0,0-3.5-1.2-3.5-5.5v-30.7h-8.8v30.3c0,0-0.2,5.7-2.5,5.7H135v-21.1h-17.2c0,0-11.2,1.8-11.2,11.5
		c0,9.6,1.2,17.8,8,17.8h13.3c0,0,1.2,8.4-4.5,8.4h-9.8l3.9,7.4c0,0,4.7,0.1,7.4,0c2.7-0.1,9.9-2.2,9.7-8.3c-0.1-4.9,0-7.4,0-7.4h8
		c0,0,3,0,3.5-2.6c0.1-0.4,0.3-1.2,0.7-0.2c0.4,1.1,1.5,2.7,3.7,2.6c2.6,0,26.8,0,34.5,0c1.5,0,5.7-0.7,7.7-5.6
		c0.8-2,1.4-4.8,1.4-8.5C193.9,383.1,193.6,381.2,192.9,379.8 M127.9,391.3h-10.5c0,0-4.1-0.6-4.1-4.4c0-3.8-0.1-4.9,0.1-5.5
		c0.5-1.2,1.6-3.1,3.8-3.1H128L127.9,391.3z"/>
	<path class="st0" d="M293.9,422.8h4.3v16.5c0,0,0.1,3.8-1.3,5.8c-1,1.4-3,2.4-6.3,2.4c-5,0-5.2-2.7-5.2-2.7s-0.1,1.3-1,2.2
		c-0.5,0.6-1.9,1-2.7,1H279l0,2.4c0,0,0,2.2-1.6,3.7c-0.4,0.4-0.8,0.7-1.4,0.9c-1.1,0.4-2.3,0.4-2.7,0.4h-5.1v-4.5h4
		c0,0,1,0,1.6-0.6c0.5-0.5,0.6-1.5,0.6-3.5v-17h4.9V441c0,0,0.2,1.1,0.6,1.3c0.3,0.2,0.8,0.2,1.4,0.2c1.3,0,2.1-0.6,2.1-3v-16.7h5.1
		v17.4c0,0,0.1,2.2,1.9,2.2c1.2,0,3.4,0.3,3.3-3C293.6,435.7,293.9,422.8,293.9,422.8"/>
	<path class="st0" d="M247.6,430.4l-0.3,5.1l13.2,1.8c0,0,1.4,0.3,1.9,0.7c0.5,0.4,0.9,1,0.8,2c-0.1,0.8-0.3,1.3-0.5,1.8
		c-0.5,1-2.8,0.9-2.8,0.9h-15c0,0-1.1,0-1.9-0.9c-0.6-0.7-0.8-1.9-0.8-3.4v-15.6h-3.9v19.9c0,0,0.1,1.9,0.4,2.4
		c0.8,1.4,2.6,2.5,4.8,2.5h18.3c0,0,5.7-0.4,5.7-7.6c0-7.1-5.1-7.7-5.1-7.7L247.6,430.4z"/>
	<rect x="252.8" y="422.6" class="st0" width="5.3" height="5.3"/>
	<path class="st0" d="M235.2,438c0-2.6-0.5-5-2.3-6.5c-1.4-1.2-3.8-1.5-5.8-1.5c-2.6,0-5.4,0.4-6.8,2.3c-1.1,1.4-1.6,2.8-1.5,4.8
		c0.1,1.3,0.1,2.7,0.1,3.5c0,1.5,1.4,2.9,1.4,2.9l-1,0.2c-4.7,0-5,4.9-5,4.9v7.6h0.6h4.1V456v-6.4c0-2.6,2.6-3.1,2.6-3.1
		c0.8,1.1,4,0.8,6.7,0.7c2-0.1,4-0.5,5.3-2.2c1.3-1.7,1.4-4.4,1.4-4.4V438v0.1V438z M230.1,441.4c-0.7,0.8-1.9,1-2.9,1
		c-1,0-2.3-0.1-2.9-0.8c-0.7-0.8-0.9-2.3-0.9-3.6c0-1.1,0.1-2.2,0.7-3c0.7-0.9,2-1.4,3.2-1.4c1,0,2.2,0.3,2.9,1c0.7,0.8,1,2.1,1,3.3
		C231,439.2,230.8,440.6,230.1,441.4"/>
	<path class="st2" d="M470.9,370.9h6.7v20.9c0,0-0.4,8.4-10.4,8.2c-11.2-0.2-11.2-4.7-11.2-4.7s-2.8,3.3-7.1,3.9
		c-4.3,0.6-13.7,1.4-14.3-3.7c0,0-2.3,2.9-4.5,3.1c-2.2,0.2-9.2,0.6-9.2,0.6v7.6c0,0-2.2,7.2-7.8,7c-4.1-0.1-10.4,0.4-10.4,0.4v-6.1
		c0,0,6.7,0.8,8.4-1.2c1.6-2,2.9-4.1,2.7-7.6c-0.2-3.5,0-28.2,0-28.2h6.5v21.1h7.6c0,0,3.9-3.3,3.9-8.6v-12.5h7v17.8
		c0,0,2.5,3.5,6.3,3.5c3.9,0,5.9-1.8,5.9-4.9v-13.1h7v14.3c0,0,2,3.5,6.5,3.5c4.5,0,6.1-3.3,6.1-6.3L470.9,370.9z"/>
	<path class="st2" d="M399,362.7l-0.9-6.8h-19.6c0,0-7.7,5.2-5.4,12c2.2,6.7,7,8.8,7,8.8l10.6,6.7c0,0,3.7,7.8-0.8,8.4
		c-4.5,0.6-21.3,0-21.3,0s-3.1-1.8-3.9-5.1c-0.8-3.3-1.2-14.3-8.8-15.3c-7.6-1-18.4,1.6-18.6,7c-0.2,5.3,0,14.3,0,14.3
		s1.2,7,7.4,7.2c6.1,0.2,11.2,0,11.2,0l0.2-6.7l-7.4-1c0,0-4.5-1.2-4.5-5.5c0-4.3,1.2-9,6.5-9c5.3,0,5.7,7.8,5.7,7.8s0.8,9,4.1,11.7
		c3.3,2.7,7.6,2.5,7.6,2.5h24.3c0,0,9.6-2,7.6-11.4c-1.6-7.6-5.5-9.8-5.5-9.8l-12.7-8.8c0,0-2.9-5.5,3.7-5.9
		C392,362.9,399,362.7,399,362.7"/>
	<path class="st2" d="M249.3,370.7v8.6l20.4,1.4c0,0,4.2,0.2,6.1,1.3c1.2,0.7,2.4,3.2,2.2,4.3c-0.2,1.4,0,2.6-0.5,3.4
		c-0.9,1.3-2.7,1.9-4.2,1.9h-24.7c0,0-6.9,0.4-6.9-6.1c0-6.5-0.4-30.5-0.4-30.5h-8.4v36c0,0,0,3.1,2.4,5.7c1.4,1.5,3.7,2.5,6.6,2.5
		h34.6c0,0,1.7,0.1,3.2-0.7c1.2-0.6,2.2-1.7,2.3-3c0,0,2.5,3.9,5.1,3.9h11c0,0,2.3-0.2,4.1-1.8c1.8-1.6,3.2-3.8,3.1-7.8
		c-0.1-6.7,0-18.6,0-18.6H299v17.4c0,0,0,1.1-0.4,2c-0.4,0.7-1,1.1-2,1.1h-9c0,0-1.3,0-2.2-0.8c-0.7-0.7-1.1-2.2-1.1-3.1
		c0-1.2,0.8-5.5-1.2-9.1c-1.1-1.9-2.6-3.6-6.2-4.4L249.3,370.7z"/>
	<path class="st2" d="M220.7,371.1h7.6v33.3c0,0,0.2,3.1-1.2,5.6c-0.9,1.6-2.8,3.2-5.1,3.2h-11.7v-7.2h6.2c0,0,2,0.1,3-0.9
		c0.7-0.7,1-1.9,1-3.6C220.5,398.1,220.7,371.1,220.7,371.1"/>
	<path class="st2" d="M94.3,371.1h6.7v18.8c0,0-0.3,5.4-5.5,8.2c-1.9,1.1-4.6,1.2-8,1.2c-3,0-5.1,0.2-6.9-0.4c-5.8-2-6-6.2-6-6.2
		v-37.6h7.2v32.3c0,0,0.4,3.9,6.1,3.9c5.7,0,6.1-3.9,6.1-3.9L94.3,371.1z"/>
	<path class="st2" d="M62.2,355.1h6.9V403c0,0-0.5,8.5-8.1,11c-1,0.3-2.2,0.6-3.6,0.6c-1.7,0.2-9.1,0.1-10.6,0
		c-1.2-0.1-11.9-1.8-11.9-8.6v-13.9h6.3V403c0,0-0.2,4.7,5.3,4.7c5.5,0,15.1,0.2,15.1-6.1C61.8,395.2,62.2,355.1,62.2,355.1"/>
	<rect x="90.2" y="406.7" class="st2" width="6.7" height="6.3"/>
	<rect x="171.2" y="406.7" class="st2" width="6.7" height="6.3"/>
	<rect x="221.1" y="358" class="st2" width="6.7" height="6.3"/>
	<rect x="262.4" y="406.3" class="st2" width="6.7" height="6.3"/>
	<rect x="456.5" y="358.1" class="st2" width="6.7" height="6.3"/>
	<rect x="451.4" y="348.6" class="st2" width="6.7" height="6.3"/>
	<rect x="446.1" y="358.1" class="st2" width="6.7" height="6.3"/>
	<rect x="351.6" y="358.1" class="st2" width="6.7" height="6.3"/>
	<rect x="341.2" y="358.1" class="st2" width="6.7" height="6.3"/>
	<rect x="298.6" y="358.2" class="st2" width="6.7" height="6.3"/>
	<rect x="310.9" y="355.1" class="st2" width="7.4" height="43.6"/>
	<path class="st2" d="M319.5,415.3v-3.4h-2.7c0,0-1.6,0.2-1.6-1.4c0-1.6,0.1-1.6,0.1-1.6s0.4-0.7,0.9-0.7h2.7v-3.4h-6.6
		c0,0-2.2,1.2-2.2,3.8c0,2.6,2.6,3.2,2.6,3.2h-2.7v3.6L319.5,415.3z"/>
	<path class="st2" d="M192.9,379.8c-2.6-5.2-10.1-5.7-10.1-5.7l-23.5-3.3v8.6l23.2,2.6c0,0,2.6,0.3,3.5,1.6c0.7,1,1.4,2.3,1.1,4.4
		c-0.6,4.1-3.7,3.7-3.7,3.7h-29c0,0-3.5-1.2-3.5-5.5v-30.7h-8.8v30.3c0,0-0.2,5.7-2.5,5.7H135v-21.1h-17.2c0,0-11.2,1.8-11.2,11.5
		c0,9.6,1.2,17.8,8,17.8h13.3c0,0,1.2,8.4-4.5,8.4h-9.8l3.9,7.4c0,0,4.7,0.1,7.4,0c2.7-0.1,9.9-2.2,9.7-8.3c-0.1-4.9,0-7.4,0-7.4h8
		c0,0,3,0,3.5-2.6c0.1-0.4,0.3-1.2,0.7-0.2c0.4,1.1,1.5,2.7,3.7,2.6c2.6,0,26.8,0,34.5,0c1.5,0,5.7-0.7,7.7-5.6
		c0.8-2,1.4-4.8,1.4-8.5C193.9,383.1,193.6,381.2,192.9,379.8 M127.9,391.3h-10.5c0,0-4.1-0.6-4.1-4.4c0-3.8-0.1-4.9,0.1-5.5
		c0.5-1.2,1.6-3.1,3.8-3.1H128L127.9,391.3z"/>
	<path class="st0" d="M293.9,422.8h4.3v16.5c0,0,0.1,3.8-1.3,5.8c-1,1.4-3,2.4-6.3,2.4c-5,0-5.2-2.7-5.2-2.7s-0.1,1.3-1,2.2
		c-0.5,0.6-1.9,1-2.7,1H279l0,2.4c0,0,0,2.2-1.6,3.7c-0.4,0.4-0.8,0.7-1.4,0.9c-1.1,0.4-2.3,0.4-2.7,0.4h-5.1v-4.5h4
		c0,0,1,0,1.6-0.6c0.5-0.5,0.6-1.5,0.6-3.5v-17h4.9V441c0,0,0.2,1.1,0.6,1.3c0.3,0.2,0.8,0.2,1.4,0.2c1.3,0,2.1-0.6,2.1-3v-16.7h5.1
		v17.4c0,0,0.1,2.2,1.9,2.2c1.2,0,3.4,0.3,3.3-3C293.6,435.7,293.9,422.8,293.9,422.8"/>
	<path class="st0" d="M247.6,430.4l-0.3,5.1l13.2,1.8c0,0,1.4,0.3,1.9,0.7c0.5,0.4,0.9,1,0.8,2c-0.1,0.8-0.3,1.3-0.5,1.8
		c-0.5,1-2.8,0.9-2.8,0.9h-15c0,0-1.1,0-1.9-0.9c-0.6-0.7-0.8-1.9-0.8-3.4v-15.6h-3.9v19.9c0,0,0.1,1.9,0.4,2.4
		c0.8,1.4,2.6,2.5,4.8,2.5h18.3c0,0,5.7-0.4,5.7-7.6c0-7.1-5.1-7.7-5.1-7.7L247.6,430.4z"/>
	<rect x="252.8" y="422.6" class="st0" width="5.3" height="5.3"/>
	<path class="st0" d="M235.2,438c0-2.6-0.5-5-2.3-6.5c-1.4-1.2-3.8-1.5-5.8-1.5c-2.6,0-5.4,0.4-6.8,2.3c-1.1,1.4-1.6,2.8-1.5,4.8
		c0.1,1.3,0.1,2.7,0.1,3.5c0,1.5,1.4,2.9,1.4,2.9l-1,0.2c-4.7,0-5,4.9-5,4.9v7.6h0.6h4.1V456v-6.4c0-2.6,2.6-3.1,2.6-3.1
		c0.8,1.1,4,0.8,6.7,0.7c2-0.1,4-0.5,5.3-2.2c1.3-1.7,1.4-4.4,1.4-4.4V438v0.1V438z M230.1,441.4c-0.7,0.8-1.9,1-2.9,1
		c-1,0-2.3-0.1-2.9-0.8c-0.7-0.8-0.9-2.3-0.9-3.6c0-1.1,0.1-2.2,0.7-3c0.7-0.9,2-1.4,3.2-1.4c1,0,2.2,0.3,2.9,1c0.7,0.8,1,2.1,1,3.3
		C231,439.2,230.8,440.6,230.1,441.4"/>
</g>
</svg>
